<svg viewBox="0 0 240 240" fill="none" xmlns="http://www.w3.org/2000/svg">
<circle cx="119.5" cy="119.5" r="119.5" fill="#E6393F"/>
<mask id="mask0" mask-type="alpha" maskUnits="userSpaceOnUse" x="0" y="0" width="240" height="240">
<circle cx="120" cy="120" r="120" fill="#E6393F"/>
</mask>
<g mask="url(#mask0)">
<path fill-rule="evenodd" clip-rule="evenodd" d="M119.498 158.661C152.219 158.661 178.745 132.135 178.745 99.4139C178.745 66.6927 152.219 40.167 119.498 40.167C86.7768 40.167 60.251 66.6927 60.251 99.4139C60.251 132.135 86.7768 158.661 119.498 158.661ZM119.498 407.699C185.495 407.699 238.996 354.198 238.996 288.201C238.996 222.204 185.495 168.703 119.498 168.703C53.501 168.703 0 222.204 0 288.201C0 354.198 53.501 407.699 119.498 407.699Z" fill="#FF8C8C"/>
</g>
</svg>
