<svg xmlns="http://www.w3.org/2000/svg" fill="none" viewBox="0 0 24 24">
    <circle cx="12" cy="12" r="11" stroke="currentColor" stroke-width="2" fill="transparent"/>
    <path fill="currentColor" d="M12.1 5.94c1.24 0 2.24.28 3 .83.77.54 1.15 1.3 1.15 2.28 0 1.02-.31 1.81-.93 2.36a4.3 4.3 0 01-2.47 1l-.05 1.81h-1.84l-.04-2.72a6.1 6.1 0 002.52-.72c.5-.35.76-.83.76-1.46 0-.52-.2-.94-.58-1.24-.37-.3-.92-.45-1.65-.45-.72 0-1.3.2-1.75.6-.44.4-.7.94-.77 1.65l-1.78-.84c.19-.94.66-1.69 1.42-2.25a4.96 4.96 0 013-.85zm-.22 9.67c.4 0 .73.12.97.36.24.22.36.53.36.91 0 .4-.12.71-.36.94-.24.23-.56.34-.97.34-.42 0-.75-.11-1-.34a1.23 1.23 0 01-.35-.94c0-.38.12-.69.36-.91.25-.24.58-.36.99-.36z" />
</svg>
