<svg viewBox="0 0 128 128" fill="none" xmlns="http://www.w3.org/2000/svg">
<path d="M84.4187 84.4183H75.825V70.96C75.825 67.7508 75.7677 63.6195 71.3553 63.6195C66.8794 63.6195 66.1946 67.1161 66.1946 70.7264V84.4174H57.6007V56.7418H65.8508V60.5239H65.9663C66.7919 59.1123 67.985 57.951 69.4184 57.1637C70.8518 56.3764 72.472 55.9927 74.1062 56.0534C82.8164 56.0534 84.4223 61.7826 84.4223 69.2359L84.4187 84.4183ZM47.9041 52.9587C46.9177 52.9589 45.9535 52.6666 45.1332 52.1187C44.313 51.5709 43.6737 50.7921 43.2961 49.8809C42.9185 48.9697 42.8195 47.967 43.0118 46.9996C43.204 46.0321 43.6789 45.1434 44.3762 44.4459C45.0735 43.7483 45.962 43.2731 46.9294 43.0805C47.8968 42.8879 48.8995 42.9865 49.8108 43.3638C50.7222 43.7411 51.5012 44.3802 52.0493 45.2002C52.5974 46.0202 52.8901 46.9844 52.8903 47.9707C52.8904 48.6256 52.7615 49.2742 52.511 49.8793C52.2605 50.4844 51.8933 51.0342 51.4303 51.4974C50.9672 51.9606 50.4175 52.328 49.8125 52.5787C49.2075 52.8295 48.559 52.9586 47.9041 52.9587V52.9587ZM52.201 84.4183H43.5983V56.7418H52.201V84.4183ZM88.7031 35.004H39.2799C38.1581 34.9913 37.0772 35.4245 36.2746 36.2084C35.4721 36.9923 35.0137 38.0627 35 39.1845V88.8127C35.0132 89.935 35.4714 91.0062 36.2739 91.7909C37.0764 92.5756 38.1576 93.0097 39.2799 92.9977H88.7031C89.8277 93.0118 90.9119 92.579 91.7175 91.7943C92.5232 91.0096 92.9844 89.9373 93 88.8127V39.1809C92.984 38.0569 92.5224 36.9853 91.7167 36.2014C90.911 35.4175 89.8271 34.9855 88.7031 35.0004" fill="white"/>
</svg>
