<svg xmlns="http://www.w3.org/2000/svg" viewBox="0 0 160 32">
  <path d="M11.44 24.92v-9.47a9 9 0 00-.1-1.4 2.97 2.97 0 00-.43-1.16 1.98 1.98 0 00-.77-.81 2.3 2.3 0 00-1.26-.32c-1 0-1.78.37-2.32 1.09a4.2 4.2 0 00-.8 2.63v9.44H0V1.9L5.75.5v9.16h.07c.4-.7 1.03-1.32 1.9-1.86.86-.56 1.9-.84 3.12-.84 1.2 0 2.19.2 2.98.63a5.9 5.9 0 013.05 3.93c.24.86.36 1.73.36 2.6v10.8h-5.8zM32.22 14.18c0-.9-.3-1.7-.88-2.35-.56-.65-1.42-.98-2.56-.98-.56 0-1.08.1-1.55.28a3.49 3.49 0 00-2.42 3.05h7.4zm5.3 2.21v.7c0 .24-.02.46-.04.67H24.8c.05.5.19.94.42 1.34.26.4.58.74.95 1.05a4.74 4.74 0 002.8.91c.92 0 1.7-.16 2.32-.5.63-.34 1.15-.79 1.55-1.32l4 2.52a8.2 8.2 0 01-3.27 2.77 10.8 10.8 0 01-4.66.95c-1.31 0-2.55-.2-3.72-.6a9.63 9.63 0 01-3.09-1.78 8.79 8.79 0 01-2.8-6.85c0-1.42.24-2.71.73-3.86a8.78 8.78 0 014.98-4.84 10.2 10.2 0 017.27 0c1.07.42 2 1.04 2.77 1.86a8.46 8.46 0 011.79 2.98c.44 1.17.66 2.5.66 4zM39.75 24.92V1.9L45.57.5v24.42h-5.82zM68.16 16.11c0 1.22-.18 2.39-.56 3.51a9.05 9.05 0 01-1.65 2.98 7.74 7.74 0 01-6.1 2.8 7.5 7.5 0 01-3.05-.62 5.58 5.58 0 01-2.25-1.79h-.07v6.84l-5.75 1.4V7.46h5.47v2.14h.1a6.95 6.95 0 015.58-2.63 7.58 7.58 0 016.03 2.74 8.66 8.66 0 011.66 2.94c.4 1.1.6 2.26.6 3.47zm-5.58 0a4.98 4.98 0 00-1.05-3.05 3.62 3.62 0 00-1.26-1.02 3.95 3.95 0 00-1.8-.38c-.65 0-1.23.13-1.74.38a4.4 4.4 0 00-2.46 4.1c0 .57.1 1.12.28 1.66.21.54.5 1.01.84 1.44.38.42.82.76 1.34 1.01.51.26 1.1.39 1.75.39.68 0 1.27-.13 1.79-.39a4.07 4.07 0 002.03-2.46 5.3 5.3 0 00.28-1.68zM81.43 12.74a6.4 6.4 0 00-1.65-1.12c-.63-.3-1.3-.45-2-.45-.53 0-1.04.1-1.5.31-.45.21-.67.57-.67 1.09 0 .49.25.84.74 1.05.51.21 1.33.45 2.45.7.66.14 1.31.34 1.97.6.68.26 1.28.6 1.82 1.02a4.53 4.53 0 011.79 3.72c0 1.1-.22 2.03-.67 2.8a5.45 5.45 0 01-1.75 1.83c-.7.47-1.5.8-2.39 1.02-.88.2-1.77.31-2.66.31-1.43 0-2.83-.22-4.21-.67a9 9 0 01-3.4-2.03l3.22-3.4a6.45 6.45 0 001.9 1.4c.75.37 1.54.56 2.38.56.47 0 .93-.1 1.37-.31.47-.24.7-.64.7-1.2 0-.54-.28-.93-.84-1.2-.56-.25-1.44-.52-2.63-.8a13.6 13.6 0 01-1.83-.56 4.84 4.84 0 01-2.8-2.42 4.51 4.51 0 01-.46-2.1c0-1.06.22-1.95.67-2.67a5.59 5.59 0 011.72-1.83c.7-.46 1.47-.8 2.31-1.01a9.79 9.79 0 012.56-.35c1.31 0 2.59.2 3.83.63 1.26.4 2.33 1 3.2 1.82l-3.17 3.26zM105.74 16.25c0 1.22-.19 2.39-.56 3.51a9.05 9.05 0 01-1.65 2.98 7.74 7.74 0 01-6.1 2.8c-1.08.01-2.1-.2-3.06-.62a5.58 5.58 0 01-2.25-1.79h-.07v6.84l-5.75 1.4V7.6h5.47v2.14h.1a6.95 6.95 0 015.59-2.63 7.58 7.58 0 016.04 2.74 8.66 8.66 0 011.64 2.94c.4 1.1.6 2.26.6 3.47zm-5.58 0a4.99 4.99 0 00-1.05-3.05 3.62 3.62 0 00-1.27-1.02 3.95 3.95 0 00-1.79-.38c-.65 0-1.24.13-1.75.38a4.4 4.4 0 00-2.46 4.1c0 .57.1 1.12.28 1.66a4.4 4.4 0 002.18 2.46c.51.25 1.1.38 1.75.38.68 0 1.28-.13 1.8-.39a4.08 4.08 0 002.03-2.46 5.3 5.3 0 00.28-1.68zM118.27 17.45h-.74c-.63 0-1.27.03-1.93.1a7.5 7.5 0 00-1.71.32c-.5.16-.9.4-1.23.73-.33.3-.5.72-.5 1.23 0 .33.08.61.22.84.16.24.36.43.6.57.23.14.5.24.8.31.3.05.6.07.88.07 1.17 0 2.06-.31 2.66-.95.64-.65.95-1.53.95-2.63v-.6zm-10.56-7.48a10.1 10.1 0 013.58-2.2c1.38-.5 2.78-.74 4.2-.74 1.48 0 2.72.18 3.73.56 1.03.35 1.86.9 2.49 1.68.63.75 1.09 1.7 1.37 2.88.3 1.14.45 2.51.45 4.1v8.81h-5.26V23.2h-.1a4.32 4.32 0 01-2.04 1.68c-.89.4-1.86.6-2.91.6-.7 0-1.43-.1-2.18-.28a6.59 6.59 0 01-2.07-.91 5.02 5.02 0 01-1.5-1.69 5.2 5.2 0 01-.6-2.6c0-1.26.34-2.27 1.02-3.05a6.96 6.96 0 012.66-1.78c1.1-.43 2.32-.7 3.65-.85a37.2 37.2 0 013.9-.2v-.29c0-.86-.3-1.5-.92-1.9a3.85 3.85 0 00-2.24-.62 5.7 5.7 0 00-2.39.52c-.75.35-1.39.77-1.93 1.27l-2.91-3.13zM138.46 13.24a4.08 4.08 0 00-3.05-1.4c-.61 0-1.16.12-1.65.38-.5.23-.91.56-1.26.98-.36.4-.64.87-.85 1.4a5.2 5.2 0 00.81 4.88c.37.4.8.71 1.3.95.51.23 1.09.35 1.72.35.58 0 1.16-.1 1.72-.32a3.46 3.46 0 001.4-.98l3.2 3.9a7.5 7.5 0 01-2.81 1.64c-1.15.4-2.37.6-3.65.6-1.38 0-2.67-.2-3.86-.63a9.24 9.24 0 01-3.13-1.82 9.17 9.17 0 01-2.06-2.95 9.8 9.8 0 01-.74-3.9 8.77 8.77 0 015.93-8.63 10.86 10.86 0 019.05.74c.5.28.91.6 1.26.95l-3.33 3.86z"/>
  <path d="M154.7 14.32c0-.9-.29-1.7-.88-2.35-.56-.65-1.41-.98-2.56-.98-.56 0-1.07.1-1.54.28a3.48 3.48 0 00-2.42 3.05h7.4zm5.3 2.21v.7c0 .24-.01.46-.03.67H147.3c.05.5.19.94.42 1.34.26.4.57.74.95 1.05a4.75 4.75 0 002.8.91c.92 0 1.69-.16 2.32-.5.63-.34 1.15-.79 1.54-1.32l4 2.52a8.2 8.2 0 01-3.26 2.77c-1.33.64-2.89.95-4.67.95-1.3 0-2.55-.2-3.72-.6a9.64 9.64 0 01-3.08-1.78 8.8 8.8 0 01-2.81-6.85c0-1.42.25-2.71.74-3.86a8.78 8.78 0 014.98-4.84 10.2 10.2 0 017.26 0c1.08.42 2 1.04 2.77 1.86a8.46 8.46 0 011.8 2.98c.44 1.17.66 2.5.66 4z"/>
</svg>
